<svg width="92" height="92" viewBox="0 0 92 92" fill="none" xmlns="http://www.w3.org/2000/svg">
<circle cx="46" cy="46" r="44.5" stroke="black" stroke-width="3"/>
<path d="M59.8984 54.5195H52.5938L52.5547 50.4961H58.6875C59.7682 50.4961 60.6536 50.3594 61.3438 50.0859C62.0339 49.7995 62.5482 49.3893 62.8867 48.8555C63.2383 48.3086 63.4141 47.6445 63.4141 46.8633C63.4141 45.9779 63.2448 45.2617 62.9062 44.7148C62.5807 44.168 62.0664 43.7708 61.3633 43.5234C60.6732 43.276 59.7812 43.1523 58.6875 43.1523H54.625V67H48.7656V38.5625H58.6875C60.3411 38.5625 61.819 38.7188 63.1211 39.0312C64.4362 39.3438 65.5495 39.819 66.4609 40.457C67.3724 41.0951 68.069 41.9023 68.5508 42.8789C69.0326 43.8424 69.2734 44.9883 69.2734 46.3164C69.2734 47.4883 69.0065 48.569 68.4727 49.5586C67.9518 50.5482 67.125 51.3555 65.9922 51.9805C64.8724 52.6055 63.4076 52.9505 61.5977 53.0156L59.8984 54.5195ZM59.6445 67H50.9922L53.2773 62.4297H59.6445C60.6732 62.4297 61.513 62.2669 62.1641 61.9414C62.8151 61.6029 63.2969 61.1471 63.6094 60.5742C63.9219 60.0013 64.0781 59.3438 64.0781 58.6016C64.0781 57.7682 63.9349 57.0456 63.6484 56.4336C63.375 55.8216 62.9323 55.3529 62.3203 55.0273C61.7083 54.6888 60.901 54.5195 59.8984 54.5195H54.2539L54.293 50.4961H61.3242L62.6719 52.0781C64.4036 52.0521 65.7969 52.3581 66.8516 52.9961C67.9193 53.6211 68.694 54.4349 69.1758 55.4375C69.6706 56.4401 69.918 57.5143 69.918 58.6602C69.918 60.4831 69.5208 62.0195 68.7266 63.2695C67.9323 64.5065 66.7669 65.4375 65.2305 66.0625C63.707 66.6875 61.8451 67 59.6445 67Z" fill="black"/>
</svg>
